<svg version="1.2" xmlns="http://www.w3.org/2000/svg" viewBox="0 0 761 761" width="761" height="761">
	<title>logo final SUPLOVERS-ai</title>
	<style>
		tspan { white-space:pre } 
		.s0 { fill: #ffffff } 
		.s1 { fill: #28c2df } 
		.s2 { fill: #0b414d } 
		.t3 { font-size: 116px;fill: #44cce4;font-weight: 900;font-family: "THICCCBOI-ThicccAF", "THICCCBOI" } 
		.t4 { font-size: 54px;fill: #43cce4;font-weight: 500;font-family: "THICCCBOI-Medium", "THICCCBOI" } 
		.s5 { fill: none;stroke: #2ac2df;stroke-miterlimit:10;stroke-width: 3 } 
		.s6 { fill: none;stroke: #2ac2df;stroke-miterlimit:10;stroke-width: 6.3 } 
		.s7 { fill: #60c7cb;stroke: #2ac2df;stroke-miterlimit:10 } 
		.s8 { fill: none;stroke: #2ac2df;stroke-miterlimit:10;stroke-width: 1.6 } 
		.s9 { fill: #2ac2df } 
		.s10 { fill: #26c1df;stroke: #2ac2df;stroke-miterlimit:10;stroke-width: 3 } 
		.s11 { fill: none;stroke: #03000e;stroke-miterlimit:10 } 
		.s12 { fill: none;stroke: #0b404d;stroke-miterlimit:10;stroke-width: 6.3 } 
		.s13 { fill: none;stroke: #0b404d;stroke-miterlimit:10;stroke-width: 3 } 
		.s14 { fill: #0b404d } 
		.t15 { font-size: 116px;fill: #11404d;font-weight: 900;font-family: "THICCCBOI-ThicccAF", "THICCCBOI" } 
		.t16 { font-size: 54px;fill: #11404d;font-weight: 500;font-family: "THICCCBOI-Medium", "THICCCBOI" } 
	</style>
	<g id="_Artboards_">
		<path id="Mesa de trabajo 3" class="s0" d="m-319-334.3h1419v-1436.1h-1419z"/>
		<path id="Mesa de trabajo 4" class="s0" d="m1120-334.3h1419v-1436.1h-1419z"/>
		<path id="Mesa de trabajo 6" class="s0" d="m1118 1136h1419v-1436h-1419z"/>
	</g>
	<g id="Capa 1">
		<g id="&lt;Group&gt;">
			<path id="&lt;Path&gt;" class="s1" d="m2528.5 1126.6h-1402.1v-1417.2h1402.1z"/>
		</g>
		<path id="&lt;Path&gt;" class="s2" d="m1100.2-340.4h-1423.6v-1423.6h1423.6z"/>
		<text id="SUPLOVERS.CO
" style="transform: matrix(1,0,0,1,-34.963,-711.83)" >
			<tspan x="0" y="0" class="t3">SUPLOVERS.CO
</tspan>
		</text>
		<text id="PADDLEBOARD COMMUNITY
" style="transform: matrix(1,0,0,1,-31.316,-642.826)" >
			<tspan x="0" y="0" class="t4" dx="0 6 6 6 6 6 6 6 6 6 6 6 6 6 6 6 6 6 6 6 6 6" >PADDLEBOARD COMMUNITY
</tspan>
		</text>
		<g id="&lt;Group&gt;">
			<path id="&lt;Path&gt;" class="s1" d="m251.5-1056.6l6.2 6.2 45.2-44.9q0.2-6.3 0.3-12.7z"/>
			<path id="&lt;Path&gt;" class="s5" d="m251.5-1056.6l6.2 6.2 45.2-44.9q0.2-6.3 0.3-12.7z"/>
		</g>
		<g id="&lt;Group&gt;">
			<path id="&lt;Path&gt;" class="s1" d="m552.9-1356.1l-84.5 83.9c0.2 4 0.4 7.9 0.6 11.9l90.1-89.6z"/>
			<path id="&lt;Path&gt;" class="s5" d="m552.9-1356.1l-84.5 83.9c0.2 4 0.4 7.9 0.6 11.9l90.1-89.6z"/>
		</g>
		<g id="&lt;Group&gt;">
			<path id="&lt;Path&gt;" class="s1" d="m550-1383.3l35.2 35.5c1.2 1.3 1.2 3.3 0 4.5l-7.5 7.4c-1.2 1.3-3.2 1.3-4.5 0l-35.2-35.5c-1.3-1.2-1.3-3.2 0-4.4l7.5-7.5c1.2-1.2 3.2-1.2 4.5 0z"/>
		</g>
		<g id="&lt;Group&gt;">
			<path id="&lt;Path&gt;" class="s1" d="m218.9-1356.6l-6.3 6.2 90.6 90.6c0.3-3.9 0.5-7.9 0.7-11.8z"/>
			<path id="&lt;Path&gt;" class="s5" d="m218.9-1356.6l-6.3 6.2 90.6 90.6c0.3-3.9 0.5-7.9 0.7-11.8z"/>
		</g>
		<g id="&lt;Group&gt;">
			<path id="&lt;Path&gt;" class="s1" d="m519.3-1056.2l-50.1-50.1c-0.2 4.2-0.2 8.4 0.1 12.6l43.8 43.8z"/>
			<path id="&lt;Path&gt;" class="s5" d="m519.3-1056.2l-50.1-50.1c-0.2 4.2-0.2 8.4 0.1 12.6l43.8 43.8z"/>
		</g>
		<g id="&lt;Group&gt;">
			<path id="&lt;Path&gt;" class="s1" d="m185.5-1347.4l35.4-35.4c1.2-1.2 3.2-1.2 4.4 0l7.5 7.5c1.2 1.2 1.2 3.3 0 4.5l-35.4 35.4c-1.2 1.2-3.2 1.2-4.4 0l-7.5-7.5c-1.3-1.2-1.3-3.3 0-4.5z"/>
		</g>
		<path id="&lt;Path&gt;" class="s6" d="m386.1-1499c-35.7-0.1-58.4 66.1-58.4 66.1-7.8 21.5-30.8 108.4-25.3 326.3 4.4 172.3 38.3 244.2 51.3 265.8 2.9 4.7 8 7.5 13.5 7.5h41.6c5.6 0 10.8-2.9 13.6-7.8 12.2-20.8 41.4-88.7 47.1-265.5 7.2-224.4-23.2-325.7-23.2-325.7 0 0-22.5-66.6-60.2-66.7z"/>
		<g id="&lt;Group&gt;">
			<path id="&lt;Path&gt;" class="s1" d="m387.6-883.4c-7.4 0-13.5 6-13.5 13.4 0 7.4 6.1 13.4 13.5 13.4-5.5 0-9.9-4.4-9.9-9.8 0-5.5 4.4-9.9 9.9-9.9 5.4 0 9.8 4.4 9.8 9.9 0 5.4-4.4 9.8-9.8 9.8 7.4 0 13.4-6 13.4-13.4 0-7.4-6-13.4-13.4-13.4z"/>
		</g>
		<g id="&lt;Group&gt;">
			<path id="&lt;Path&gt;" class="s1" d="m318.1-1193.5c-0.6-39.3 30.7-71.2 68.6-71.2 37.8 0 68.5 31.9 68.5 71.2 0 0-9.8 227.2-24.2 259.4 0 0-6.2 22.5-43.4 38.6 0 0-15.9-3.8-32.2-21.8-8.9-9.8-14.7-22-17.1-35-5.9-31.6-18.1-111.8-20.2-241.2z"/>
		</g>
		<path id="&lt;Path&gt;" class="s7" d="m332-1319.6c0 2.6-2.1 4.7-4.7 4.7-2.6 0-4.7-2.1-4.7-4.7 0-2.6 2.1-4.7 4.7-4.7 2.6 0 4.7 2.1 4.7 4.7z"/>
		<path id="&lt;Path&gt;" class="s7" d="m449.5-1321.3c0 2.6-2.2 4.8-4.8 4.8-2.6 0-4.7-2.2-4.7-4.8 0-2.5 2.1-4.7 4.7-4.7 2.6 0 4.8 2.2 4.8 4.7z"/>
		<path id="&lt;Path&gt;" class="s7" d="m337.9-1363.4c0 2.6-2.1 4.7-4.7 4.7-2.6 0-4.7-2.1-4.7-4.7 0-2.6 2.1-4.7 4.7-4.7 2.6 0 4.7 2.1 4.7 4.7z"/>
		<path id="&lt;Path&gt;" class="s7" d="m443.6-1365.1c0 2.6-2.1 4.7-4.7 4.7-2.6 0-4.7-2.1-4.7-4.7 0-2.6 2.1-4.7 4.7-4.7 2.6 0 4.7 2.1 4.7 4.7z"/>
		<path id="&lt;Path&gt;" class="s7" d="m346.8-1406.5c0 2.6-2.1 4.7-4.7 4.7-2.6 0-4.7-2.1-4.7-4.7 0-2.6 2.1-4.7 4.7-4.7 2.6 0 4.7 2.1 4.7 4.7z"/>
		<path id="&lt;Path&gt;" class="s7" d="m435.6-1408.1c0 2.6-2.1 4.7-4.7 4.7-2.6 0-4.7-2.1-4.7-4.7 0-2.6 2.1-4.7 4.7-4.7 2.6 0 4.7 2.1 4.7 4.7z"/>
		<path id="&lt;Path&gt;" class="s8" d="m443.6-1319.6h-116.3"/>
		<path id="&lt;Path&gt;" class="s8" d="m430.9-1408.1l-97.7 44.7 111.5 42.1"/>
		<path id="&lt;Path&gt;" class="s8" d="m325.5-1319.6l113.4-45.5-96.8-41.4"/>
		<path id="&lt;Path&gt;" class="s8" d="m432.7-1408.1h-90.6"/>
		<g id="&lt;Group&gt;">
			<path id="&lt;Path&gt;" class="s9" d="m342.1-1430q1.3-4.6 2.9-9 1.7-4.5 3.5-8.8c2.6-5.8 5.4-11.4 8.8-16.8 3.4-5.4 7.4-10.4 12.3-14.7 2.4-2 5.1-3.9 8.2-5.2 3-1.3 6.3-2 9.6-2h-0.1c1 0 1.8 0.1 2.6 0.2q1.3 0.3 2.5 0.6c1.6 0.5 3.1 1.1 4.5 1.8 2.9 1.6 5.6 3.4 8 5.6 4.8 4.3 8.8 9.4 12.1 14.8 3.4 5.4 6.2 11.1 8.7 16.9 2.4 5.8 4.5 11.8 6.2 17.8-2.2-5.8-4.6-11.7-7.3-17.4-2.6-5.6-5.6-11.2-9.1-16.4-3.5-5.1-7.3-10.1-12-14.1-2.4-2-4.9-3.7-7.6-5.1-1.4-0.7-2.8-1.2-4.2-1.7q-1.1-0.3-2.2-0.5c-0.6-0.1-1.5-0.1-2-0.1h-0.1c-3-0.1-6 0.6-8.7 1.8-2.8 1.1-5.4 2.8-7.7 4.8-4.8 3.9-8.7 8.8-12.2 13.9-3.5 5.1-6.5 10.6-9.2 16.3-2.8 5.6-5.3 11.4-7.5 17.3z"/>
		</g>
		<path id="&lt;Compound Path&gt;" fill-rule="evenodd" class="s10" d="m645-921.2c-9.7 8.8-27.4 19.3-41.1 10.4-13.6-8.8-36.2-33-40.2-39.4 0 0-23-39.7-28.2-60.4 0 0-13.9-30.8-23.4-40.3l7.9-4.6c0 0 30.4 18.7 45.7 22.8 0 0 30.2 10 58.4 29.3 0 0 32.2 29 36.2 40.3 4 11.3-5.6 33-15.3 41.9zm-12.7-18.5l-61.5-61.5c-1.1-1.2-7.3-5.2-8.7-3.9l-0.1-0.2c-1.3 1.3 2.9 7.7 4 8.9l61.5 61.5c1.2 1.1 5.6 3.4 6.9 2.1l0.2 0.2c1.3-1.3-1.2-6-2.3-7.1z"/>
		<path id="&lt;Compound Path&gt;" fill-rule="evenodd" class="s10" d="m257-1049.7c0 0-18.8 30.4-22.9 45.6 0 0-10.2 30.2-29.6 58.3 0 0-29 32.1-40.3 36.1-11.3 4-33-5.7-41.8-15.4-8.9-9.7-19.3-27.4-10.4-41.1 8.9-13.7 33.1-36.1 39.6-40.1 0 0 39.8-22.9 60.5-28 0 0 30.8-13.8 40.4-23.3zm-47.5 41.1l0.2-0.1c-1.3-1.4-7.7 2.9-8.9 4l-61.4 61.5c-1.2 1.2-3.5 5.6-2.2 6.9l-0.2 0.2c1.3 1.3 6-1.2 7.1-2.3l61.5-61.5c1.2-1.1 5.2-7.3 3.9-8.7z"/>
		<text id="SUPLOVERS.CO
" style="transform: matrix(1,0,0,1,1413.715,-711.927)" >
			<tspan x="0" y="0" class="t3">SUPLOVERS.CO
</tspan>
		</text>
		<text id="PADDLEBOARD COMMUNITY
" style="transform: matrix(1,0,0,1,1417.362,-642.923)" >
			<tspan x="0" y="0" class="t4" dx="0 6 6 6 6 6 6 6 6 6 6 6 6 6 6 6 6 6 6 6 6 6" >PADDLEBOARD COMMUNITY
</tspan>
		</text>
		<g id="&lt;Group&gt;">
			<path id="&lt;Path&gt;" class="s1" d="m1700.1-1056.7l6.3 6.2 45.1-44.9q0.3-6.3 0.4-12.7z"/>
			<path id="&lt;Path&gt;" class="s5" d="m1700.1-1056.7l6.3 6.2 45.1-44.9q0.3-6.3 0.4-12.7z"/>
		</g>
		<g id="&lt;Group&gt;">
			<path id="&lt;Path&gt;" class="s1" d="m2001.5-1356.2l-84.4 83.9c0.2 4 0.3 7.9 0.5 11.9l90.1-89.6z"/>
			<path id="&lt;Path&gt;" class="s5" d="m2001.5-1356.2l-84.4 83.9c0.2 4 0.3 7.9 0.5 11.9l90.1-89.6z"/>
		</g>
		<g id="&lt;Group&gt;">
			<path id="&lt;Path&gt;" class="s1" d="m1998.6-1383.4l35.3 35.5c1.2 1.3 1.2 3.3 0 4.5l-7.5 7.4c-1.3 1.3-3.3 1.3-4.5 0l-35.3-35.4c-1.2-1.3-1.2-3.3 0.1-4.5l7.4-7.5c1.3-1.2 3.3-1.2 4.5 0z"/>
		</g>
		<g id="&lt;Group&gt;">
			<path id="&lt;Path&gt;" class="s1" d="m1667.5-1356.7l-6.2 6.2 90.6 90.6c0.3-3.9 0.5-7.9 0.6-11.8z"/>
			<path id="&lt;Path&gt;" class="s5" d="m1667.5-1356.7l-6.2 6.2 90.6 90.6c0.3-3.9 0.5-7.9 0.6-11.8z"/>
		</g>
		<g id="&lt;Group&gt;">
			<path id="&lt;Path&gt;" class="s1" d="m1968-1056.3l-50.1-50.1c-0.2 4.2-0.2 8.4 0.1 12.6l43.8 43.8z"/>
			<path id="&lt;Path&gt;" class="s5" d="m1968-1056.3l-50.1-50.1c-0.2 4.2-0.2 8.4 0.1 12.6l43.8 43.8z"/>
		</g>
		<g id="&lt;Group&gt;">
			<path id="&lt;Path&gt;" class="s1" d="m1634.2-1347.5l35.3-35.4c1.3-1.2 3.3-1.2 4.5 0l7.5 7.5c1.2 1.2 1.2 3.3 0 4.5l-35.4 35.4c-1.2 1.2-3.2 1.2-4.5 0l-7.4-7.5c-1.3-1.2-1.3-3.3 0-4.5z"/>
		</g>
		<path id="&lt;Path&gt;" class="s6" d="m1834.8-1499.1c-35.8-0.1-58.4 66.1-58.4 66.1-7.8 21.5-30.8 108.4-25.3 326.3 4.4 172.3 38.2 244.2 51.3 265.8 2.9 4.7 8 7.5 13.4 7.5h41.7c5.6 0 10.8-2.9 13.6-7.8 12.2-20.8 41.4-88.7 47.1-265.5 7.2-224.4-23.3-325.7-23.3-325.7 0 0-22.4-66.6-60.1-66.7z"/>
		<g id="&lt;Group&gt;">
			<path id="&lt;Path&gt;" class="s1" d="m1836.3-883.5c-7.5 0-13.5 6-13.5 13.4 0 7.4 6 13.4 13.5 13.4-5.5 0-9.9-4.4-9.9-9.8 0-5.5 4.4-9.9 9.9-9.9 5.4 0 9.8 4.4 9.8 9.9 0 5.4-4.4 9.8-9.8 9.8 7.4 0 13.4-6 13.4-13.4 0-7.4-6-13.4-13.4-13.4z"/>
		</g>
		<g id="&lt;Group&gt;">
			<path id="&lt;Path&gt;" class="s1" d="m1766.8-1193.6c-0.6-39.3 30.7-71.2 68.6-71.2 37.8 0 68.5 31.9 68.5 71.2 0 0-9.9 227.2-24.2 259.4 0 0-6.3 22.5-43.4 38.6 0 0-15.9-3.8-32.3-21.8-8.9-9.8-14.7-22-17.1-35-5.9-31.6-18.1-111.8-20.1-241.2z"/>
		</g>
		<path id="&lt;Path&gt;" class="s7" d="m1780.7-1319.7c0 2.6-2.1 4.7-4.7 4.7-2.6 0-4.7-2.1-4.7-4.7 0-2.6 2.1-4.7 4.7-4.7 2.6 0 4.7 2.1 4.7 4.7z"/>
		<path id="&lt;Path&gt;" class="s7" d="m1898.1-1321.3c0 2.6-2.1 4.7-4.7 4.7-2.6 0-4.7-2.1-4.7-4.7 0-2.6 2.1-4.8 4.7-4.8 2.6 0 4.7 2.2 4.7 4.8z"/>
		<path id="&lt;Path&gt;" class="s7" d="m1786.5-1363.5c0 2.6-2.1 4.7-4.7 4.7-2.6 0-4.7-2.1-4.7-4.7 0-2.6 2.1-4.7 4.7-4.7 2.6 0 4.7 2.1 4.7 4.7z"/>
		<path id="&lt;Path&gt;" class="s7" d="m1892.3-1365.2c0 2.6-2.1 4.7-4.7 4.7-2.6 0-4.7-2.1-4.7-4.7 0-2.6 2.1-4.7 4.7-4.7 2.6 0 4.7 2.1 4.7 4.7z"/>
		<path id="&lt;Path&gt;" class="s7" d="m1795.5-1406.6c0 2.6-2.1 4.7-4.7 4.7-2.6 0-4.7-2.1-4.7-4.7 0-2.6 2.1-4.7 4.7-4.7 2.6 0 4.7 2.1 4.7 4.7z"/>
		<path id="&lt;Path&gt;" class="s7" d="m1884.3-1408.2c0 2.6-2.1 4.7-4.7 4.7-2.6 0-4.7-2.1-4.7-4.7 0-2.6 2.1-4.7 4.7-4.7 2.6 0 4.7 2.1 4.7 4.7z"/>
		<path id="&lt;Path&gt;" class="s8" d="m1892.3-1319.7h-116.3"/>
		<path id="&lt;Path&gt;" class="s8" d="m1879.6-1408.2l-97.8 44.7 111.6 42.2"/>
		<path id="&lt;Path&gt;" class="s8" d="m1774.2-1319.7l113.4-45.5-96.8-41.4"/>
		<path id="&lt;Path&gt;" class="s8" d="m1881.3-1408.2h-90.5"/>
		<g id="&lt;Group&gt;">
			<path id="&lt;Path&gt;" class="s9" d="m1790.8-1430.1q1.3-4.6 2.9-9 1.6-4.4 3.5-8.8c2.5-5.8 5.4-11.4 8.8-16.8 3.4-5.4 7.3-10.4 12.2-14.6 2.5-2.1 5.2-4 8.2-5.3 3.1-1.3 6.4-2 9.7-2h-0.1c1 0 1.7 0.1 2.6 0.2q1.2 0.3 2.4 0.6c1.6 0.5 3.2 1.1 4.6 1.8 2.9 1.6 5.6 3.4 8 5.6 4.8 4.3 8.8 9.4 12.1 14.8 3.4 5.4 6.2 11.1 8.6 16.9 2.4 5.8 4.5 11.8 6.3 17.9-2.3-5.9-4.6-11.8-7.3-17.4-2.7-5.7-5.6-11.3-9.1-16.5-3.5-5.1-7.4-10.1-12.1-14.1-2.3-2-4.8-3.7-7.5-5.1-1.4-0.7-2.8-1.2-4.2-1.7q-1.1-0.3-2.2-0.4c-0.7-0.2-1.5-0.2-2-0.2h-0.1-0.1c-2.9-0.1-5.9 0.6-8.7 1.8-2.7 1.1-5.3 2.8-7.6 4.8-4.8 3.9-8.7 8.8-12.2 13.9-3.5 5.2-6.5 10.6-9.3 16.3-2.8 5.6-5.2 11.4-7.4 17.3z"/>
		</g>
		<path id="&lt;Compound Path&gt;" fill-rule="evenodd" class="s10" d="m2093.7-921.3c-9.7 8.8-27.4 19.3-41.1 10.4-13.7-8.8-36.2-33-40.2-39.4 0 0-23-39.7-28.2-60.4 0 0-13.9-30.8-23.5-40.3l8-4.6c0 0 30.4 18.7 45.7 22.8 0 0 30.2 10 58.3 29.3 0 0 32.2 29 36.3 40.3 4 11.3-5.7 33-15.3 41.9zm-12.7-18.5l-61.5-61.5c-1.2-1.2-7.4-5.2-8.7-3.9l-0.2-0.2c-1.3 1.3 3 7.7 4.1 8.9l61.5 61.5c1.1 1.1 5.6 3.4 6.9 2.1l0.2 0.2c1.3-1.3-1.2-6-2.3-7.1z"/>
		<path id="&lt;Compound Path&gt;" fill-rule="evenodd" class="s10" d="m1705.7-1049.8c0 0-18.8 30.4-22.9 45.6 0 0-10.2 30.2-29.6 58.3 0 0-29.1 32.1-40.4 36.1-11.2 4-32.9-5.7-41.8-15.4-8.8-9.7-19.2-27.4-10.3-41.1 8.9-13.7 33.1-36.1 39.6-40.1 0 0 39.7-22.9 60.4-28 0 0 30.9-13.8 40.5-23.3zm-47.5 41.1l0.2-0.1c-1.4-1.4-7.7 2.9-8.9 4l-61.5 61.5c-1.1 1.2-3.4 5.6-2.1 6.9l-0.2 0.2c1.3 1.3 6-1.2 7.1-2.3l61.5-61.5c1.1-1.1 5.2-7.3 3.9-8.7z"/>
		<path id="&lt;Path&gt;" class="s11" d="m2527.6-347.6h-1402.1v-1417.2h1402.1z"/>
		<path id="&lt;Path&gt;" class="s2" d="m254.4 497.6l6.2 6.3 45.2-45q0.2-6.3 0.3-12.7z"/>
		<path id="&lt;Path&gt;" class="s2" d="m555.7 198.1l-84.4 83.9c0.2 4 0.3 8 0.6 11.9l90.1-89.5z"/>
		<path id="&lt;Path&gt;" class="s2" d="m552.8 170.9l35.3 35.5c1.2 1.3 1.2 3.3 0 4.5l-7.5 7.5c-1.2 1.2-3.3 1.2-4.5-0.1l-35.2-35.4c-1.3-1.3-1.3-3.3 0-4.5l7.5-7.5c1.2-1.2 3.2-1.2 4.4 0z"/>
		<path id="&lt;Path&gt;" class="s2" d="m221.8 197.6l-6.3 6.2 90.6 90.6c0.3-3.9 0.5-7.8 0.7-11.8z"/>
		<path id="&lt;Path&gt;" class="s2" d="m522.2 498l-50.1-50.1c-0.2 4.2-0.2 8.4 0.1 12.6l43.8 43.8z"/>
		<path id="&lt;Path&gt;" class="s2" d="m188.4 206.8l35.3-35.3c1.3-1.3 3.3-1.3 4.5 0l7.5 7.4c1.2 1.3 1.2 3.3 0 4.5l-35.4 35.4c-1.2 1.2-3.2 1.2-4.5 0l-7.4-7.5c-1.3-1.2-1.3-3.2 0-4.5z"/>
		<path id="&lt;Path&gt;" class="s12" d="m389 55.2c-35.7 0-58.4 66.1-58.4 66.1-7.8 21.5-30.8 108.4-25.3 326.3 4.4 172.3 38.2 244.2 51.3 265.8 2.9 4.7 8 7.6 13.5 7.6h41.6c5.6 0 10.8-3 13.6-7.9 12.2-20.8 41.4-88.7 47.1-265.5 7.2-224.4-23.2-325.7-23.2-325.7 0 0-22.5-66.6-60.2-66.7z"/>
		<path id="&lt;Path&gt;" class="s2" d="m390.5 670.8c-7.5 0-13.5 6-13.5 13.4 0 7.4 6 13.5 13.5 13.5-5.5 0-9.9-4.5-9.9-9.9 0-5.4 4.4-9.9 9.9-9.9 5.4 0 9.8 4.5 9.8 9.9 0 5.4-4.4 9.9-9.8 9.9 7.4 0 13.4-6.1 13.4-13.5 0-7.4-6-13.4-13.4-13.4z"/>
		<path id="&lt;Path&gt;" class="s2" d="m321 360.7c-0.6-39.3 30.7-71.2 68.6-71.2 37.8 0 68.5 31.9 68.5 71.2 0 0-9.8 227.2-24.2 259.4 0 0-6.2 22.5-43.4 38.6 0 0-15.9-3.8-32.3-21.8-8.8-9.8-14.6-22-17.1-35-5.8-31.6-18.1-111.8-20.1-241.2z"/>
		<path id="&lt;Path&gt;" class="s2" d="m334.9 234.6c0 2.6-2.1 4.7-4.7 4.7-2.6 0-4.7-2.1-4.7-4.7 0-2.6 2.1-4.7 4.7-4.7 2.6 0 4.7 2.1 4.7 4.7z"/>
		<path id="&lt;Path&gt;" class="s2" d="m452.3 233c0 2.6-2.1 4.7-4.7 4.7-2.6 0-4.7-2.1-4.7-4.7 0-2.6 2.1-4.7 4.7-4.7 2.6 0 4.7 2.1 4.7 4.7z"/>
		<path id="&lt;Path&gt;" class="s2" d="m340.8 190.8c0 2.6-2.2 4.7-4.7 4.7-2.6 0-4.8-2.1-4.8-4.7 0-2.6 2.2-4.7 4.8-4.7 2.5 0 4.7 2.1 4.7 4.7z"/>
		<path id="&lt;Path&gt;" class="s2" d="m446.5 189.1c0 2.6-2.1 4.7-4.7 4.7-2.6 0-4.7-2.1-4.7-4.7 0-2.6 2.1-4.7 4.7-4.7 2.6 0 4.7 2.1 4.7 4.7z"/>
		<path id="&lt;Path&gt;" class="s2" d="m349.7 147.8c0 2.6-2.1 4.7-4.7 4.7-2.6 0-4.7-2.1-4.7-4.7 0-2.6 2.1-4.7 4.7-4.7 2.6 0 4.7 2.1 4.7 4.7z"/>
		<path id="&lt;Path&gt;" class="s2" d="m438.5 146.1c0 2.6-2.1 4.7-4.7 4.7-2.6 0-4.7-2.1-4.7-4.7 0-2.6 2.1-4.7 4.7-4.7 2.6 0 4.7 2.1 4.7 4.7z"/>
		<path id="&lt;Path&gt;" class="s13" d="m446.5 234.6h-116.3"/>
		<path id="&lt;Path&gt;" class="s13" d="m433.8 146.1l-97.7 44.7 111.5 42.2"/>
		<path id="&lt;Path&gt;" class="s13" d="m328.4 234.6l113.4-45.5-96.8-41.3"/>
		<path id="&lt;Path&gt;" class="s13" d="m435.5 146.1h-90.5"/>
		<g id="&lt;Group&gt;">
			<path id="&lt;Path&gt;" class="s14" d="m345 124.2q1.2-4.6 2.8-9 1.6-4.5 3.5-8.9c2.5-5.8 5.3-11.4 8.7-16.8 3.4-5.4 7.3-10.5 12.2-14.8 2.5-2.1 5.3-3.9 8.3-5.2 3.1-1.4 6.4-2.1 9.8-2.1h-0.1c0.5 0 0.9 0 1.4 0.1q0.6 0 1.3 0.1 1.2 0.3 2.4 0.6c1.7 0.5 3.2 1.1 4.7 1.9 2.9 1.5 5.6 3.4 8 5.5 4.9 4.4 8.8 9.5 12.2 14.9 3.3 5.4 6.1 11.2 8.5 17 2.3 5.9 4.4 11.9 6.1 18-2.3-5.9-4.7-11.7-7.4-17.4-2.7-5.6-5.7-11.1-9.2-16.3-3.5-5.1-7.4-10.1-12-14-2.4-2-4.9-3.7-7.5-5.1-1.4-0.7-2.8-1.2-4.2-1.6q-1-0.3-2.1-0.5-0.5-0.1-1.1-0.1c-0.3-0.1-0.7-0.1-0.9-0.1h-0.1c-3 0-5.9 0.6-8.6 1.8-2.8 1.1-5.3 2.8-7.6 4.7-4.7 3.9-8.6 8.7-12.2 13.9-3.4 5.1-6.5 10.6-9.3 16.2-2.8 5.5-5.3 11.3-7.6 17.2z"/>
		</g>
		<path id="&lt;Compound Path&gt;" fill-rule="evenodd" class="s2" d="m647.9 633c-9.7 8.8-27.4 19.3-41.1 10.4-13.7-8.8-36.2-33-40.2-39.4 0 0-23-39.7-28.2-60.4 0 0-13.9-30.8-23.4-40.3l7.9-4.6c0 0 30.4 18.7 45.7 22.8 0 0 30.2 10 58.4 29.4 0 0 32.2 28.9 36.2 40.2 4 11.3-5.6 33-15.3 41.9zm-12.7-18.5l-61.5-61.5c-1.1-1.1-7.3-5.2-8.7-3.9l-0.1-0.2c-1.4 1.4 2.9 7.7 4 8.9l61.5 61.5c1.2 1.1 5.6 3.4 6.9 2.1l0.2 0.2c1.3-1.3-1.2-6-2.3-7.1z"/>
		<path id="&lt;Compound Path&gt;" fill-rule="evenodd" class="s2" d="m259.9 504.5c0 0-18.8 30.4-22.9 45.7 0 0-10.2 30.1-29.6 58.2 0 0-29.1 32.2-40.3 36.1-11.3 4-33-5.7-41.9-15.4-8.8-9.7-19.2-27.4-10.3-41.1 8.9-13.6 33.1-36.1 39.6-40.1 0 0 39.8-22.9 60.5-28 0 0 30.8-13.8 40.4-23.3zm-47.5 41.2l0.2-0.2c-1.3-1.3-7.7 2.9-8.9 4l-61.5 61.5c-1.1 1.2-3.4 5.6-2.1 7l-0.2 0.1c1.3 1.3 6-1.1 7.1-2.3l61.5-61.5c1.2-1.1 5.2-7.3 3.9-8.6z"/>
		<path id="&lt;Path&gt;" class="s11" d="m1081.8 1206.7h-1402.1v-1417.2h1402.1z"/>
		<text id="SUPLOVERS.CO
" style="transform: matrix(1,0,0,1,1414.676,762.26)" >
			<tspan x="0" y="0" class="t15">SUPLOVERS.CO
</tspan>
		</text>
		<text id="PADDLEBOARD COMMUNITY
" style="transform: matrix(1,0,0,1,1418.323,831.264)" >
			<tspan x="0" y="0" class="t16" dx="0 6 6 6 6 6 6 6 6 6 6 6 6 6 6 6 6 6 6 6 6 6" >PADDLEBOARD COMMUNITY
</tspan>
		</text>
		<path id="&lt;Path&gt;" class="s2" d="m1701.1 417.5l6.2 6.2 45.2-44.9q0.3-6.3 0.3-12.7z"/>
		<path id="&lt;Path&gt;" class="s2" d="m2002.5 118l-84.5 83.9c0.3 3.9 0.4 7.9 0.6 11.9l90.1-89.6z"/>
		<path id="&lt;Path&gt;" class="s2" d="m1999.6 90.8l35.2 35.5c1.3 1.2 1.3 3.3 0 4.5l-7.5 7.4c-1.2 1.3-3.2 1.3-4.4 0l-35.3-35.5c-1.2-1.2-1.2-3.2 0-4.4l7.5-7.5c1.2-1.2 3.3-1.2 4.5 0z"/>
		<path id="&lt;Path&gt;" class="s2" d="m1668.5 117.5l-6.2 6.2 90.6 90.6c0.3-3.9 0.4-7.9 0.6-11.8z"/>
		<path id="&lt;Path&gt;" class="s2" d="m1969 417.9l-50.2-50.1c-0.1 4.2-0.1 8.4 0.1 12.6l43.8 43.8z"/>
		<path id="&lt;Path&gt;" class="s2" d="m1635.1 126.7l35.4-35.4c1.2-1.2 3.2-1.2 4.5 0l7.4 7.5c1.3 1.2 1.3 3.2 0 4.5l-35.3 35.4c-1.3 1.2-3.3 1.2-4.5 0l-7.5-7.5c-1.2-1.3-1.2-3.3 0-4.5z"/>
		<path id="&lt;Path&gt;" class="s12" d="m1835.7-24.9c-35.7-0.1-58.3 66.1-58.3 66.1-7.8 21.5-30.8 108.4-25.3 326.3 4.4 172.3 38.2 244.2 51.3 265.8 2.8 4.7 7.9 7.5 13.4 7.5h41.7c5.6 0 10.7-3 13.6-7.8 12.1-20.8 41.3-88.7 47-265.5 7.3-224.5-23.2-325.7-23.2-325.7 0 0-22.5-66.6-60.2-66.7z"/>
		<path id="&lt;Path&gt;" class="s2" d="m1837.2 590.6c-7.4 0-13.4 6.1-13.4 13.5 0 7.4 6 13.4 13.4 13.4-5.4 0-9.8-4.4-9.8-9.8 0-5.5 4.4-9.9 9.8-9.9 5.5 0 9.9 4.4 9.9 9.9 0 5.4-4.4 9.8-9.9 9.8 7.4 0 13.5-6 13.5-13.4 0-7.4-6.1-13.5-13.5-13.5z"/>
		<path id="&lt;Path&gt;" class="s2" d="m1767.8 280.6c-0.7-39.3 30.7-71.2 68.5-71.2 37.9 0 68.6 31.9 68.6 71.2 0 0-9.9 227.2-24.2 259.4 0 0-6.3 22.5-43.5 38.6 0 0-15.9-3.8-32.2-21.8-8.9-9.8-14.7-22-17.1-35-5.9-31.6-18.1-111.9-20.1-241.2z"/>
		<path id="&lt;Path&gt;" class="s2" d="m1781.7 154.5c0 2.6-2.2 4.7-4.7 4.7-2.6 0-4.8-2.1-4.8-4.7 0-2.6 2.2-4.7 4.8-4.7 2.5 0 4.7 2.1 4.7 4.7z"/>
		<path id="&lt;Path&gt;" class="s2" d="m1899.1 152.8c0 2.6-2.1 4.7-4.7 4.7-2.6 0-4.7-2.1-4.7-4.7 0-2.6 2.1-4.7 4.7-4.7 2.6 0 4.7 2.1 4.7 4.7z"/>
		<path id="&lt;Path&gt;" class="s2" d="m1787.5 110.6c0 2.6-2.1 4.7-4.7 4.7-2.6 0-4.7-2.1-4.7-4.7 0-2.6 2.1-4.7 4.7-4.7 2.6 0 4.7 2.1 4.7 4.7z"/>
		<path id="&lt;Path&gt;" class="s2" d="m1893.3 109c0 2.6-2.1 4.7-4.7 4.7-2.6 0-4.7-2.1-4.7-4.7 0-2.6 2.1-4.7 4.7-4.7 2.6 0 4.7 2.1 4.7 4.7z"/>
		<path id="&lt;Path&gt;" class="s2" d="m1796.5 67.6c0 2.6-2.1 4.7-4.7 4.7-2.6 0-4.7-2.1-4.7-4.7 0-2.6 2.1-4.7 4.7-4.7 2.6 0 4.7 2.1 4.7 4.7z"/>
		<path id="&lt;Path&gt;" class="s2" d="m1885.2 66c0 2.6-2.1 4.7-4.7 4.7-2.6 0-4.7-2.1-4.7-4.7 0-2.6 2.1-4.7 4.7-4.7 2.6 0 4.7 2.1 4.7 4.7z"/>
		<path id="&lt;Path&gt;" class="s13" d="m1893.3 154.5h-116.3"/>
		<path id="&lt;Path&gt;" class="s13" d="m1880.5 66l-97.7 44.6 111.6 42.2"/>
		<path id="&lt;Path&gt;" class="s13" d="m1775.2 154.5l113.4-45.5-96.8-41.4"/>
		<path id="&lt;Path&gt;" class="s13" d="m1882.3 66h-90.5"/>
		<g id="&lt;Group&gt;">
			<path id="&lt;Path&gt;" class="s14" d="m1791.8 44.1q1.2-4.6 2.8-9.1 1.6-4.4 3.4-8.8c2.5-5.8 5.3-11.5 8.7-16.9 3.4-5.3 7.4-10.4 12.3-14.7 2.5-2.1 5.2-3.9 8.3-5.3 3-1.3 6.4-2 9.8-2h-0.2c0.6 0 1 0 1.4 0q0.7 0.1 1.3 0.2 1.3 0.2 2.5 0.6c1.6 0.5 3.1 1.1 4.6 1.9 2.9 1.5 5.7 3.4 8.1 5.5 4.8 4.3 8.8 9.5 12.1 14.9 3.4 5.4 6.1 11.2 8.6 17 2.3 5.9 4.4 11.9 6.1 17.9-2.4-5.8-4.7-11.7-7.5-17.3-2.7-5.6-5.7-11.2-9.2-16.3-3.5-5.2-7.3-10.1-12-14-2.3-2-4.8-3.8-7.5-5.1-1.3-0.7-2.7-1.3-4.1-1.7q-1.1-0.3-2.2-0.4-0.5-0.1-1-0.2c-0.3 0-0.8 0-0.9 0h-0.1-0.1c-2.9-0.1-5.8 0.6-8.6 1.7-2.7 1.2-5.2 2.9-7.6 4.8-4.7 3.8-8.6 8.7-12.1 13.8-3.5 5.2-6.6 10.6-9.4 16.2-2.8 5.6-5.3 11.4-7.5 17.3z"/>
		</g>
		<path id="&lt;Compound Path&gt;" fill-rule="evenodd" class="s2" d="m2094.6 552.9c-9.6 8.8-27.3 19.3-41 10.4-13.7-8.8-36.3-33-40.3-39.4 0 0-23-39.7-28.2-60.4 0 0-13.8-30.8-23.4-40.4l7.9-4.5c0 0 30.4 18.7 45.7 22.7 0 0 30.2 10.1 58.4 29.4 0 0 32.2 29 36.2 40.3 4.1 11.3-5.6 33-15.3 41.9zm-12.7-18.5l-61.4-61.5c-1.2-1.2-7.4-5.2-8.7-3.9l-0.2-0.2c-1.3 1.3 2.9 7.7 4.1 8.9l61.4 61.4c1.2 1.2 5.7 3.5 7 2.2l0.2 0.2c1.3-1.4-1.2-6-2.4-7.1z"/>
		<path id="&lt;Compound Path&gt;" fill-rule="evenodd" class="s2" d="m1706.6 424.4c0 0-18.8 30.4-22.9 45.6 0 0-10.1 30.2-29.5 58.3 0 0-29.1 32.1-40.4 36.1-11.3 4-33-5.7-41.8-15.4-8.8-9.7-19.2-27.4-10.3-41.1 8.9-13.7 33.1-36.1 39.5-40.1 0 0 39.8-22.9 60.5-28 0 0 30.8-13.8 40.4-23.3zm-47.5 41.1l0.2-0.1c-1.3-1.4-7.7 2.9-8.8 4l-61.5 61.5c-1.2 1.1-3.5 5.6-2.2 6.9l-0.1 0.2c1.3 1.3 5.9-1.2 7.1-2.3l61.5-61.5c1.1-1.1 5.2-7.4 3.8-8.7z"/>
	</g>
</svg>